<svg xmlns="http://www.w3.org/2000/svg" width="48" height="48" viewBox="0 0 48 48"><defs><style>.a{fill:#fff;}</style></defs><g transform="translate(-223 -87)"><g transform="translate(223 135) rotate(-90)"><path class="a" d="M24,0A24,24,0,1,0,48,24,24.026,24.026,0,0,0,24,0Zm0,46A22,22,0,1,1,46,24,22.025,22.025,0,0,1,24,46Z"/><path class="a" d="M183.374,128.293a1,1,0,0,0-1.414,0l-11,11a1,1,0,0,0,0,1.414l11,11a1,1,0,0,0,1.414-1.414L173.081,140l10.293-10.293A1,1,0,0,0,183.374,128.293Z" transform="translate(-154.667 -116)"/></g></g></svg>