<svg xmlns="http://www.w3.org/2000/svg"><symbol id="sprite-icon-card-arrow-right" viewBox="0 0 7.77 13.589"><title>icon-card-arrow-right</title><path d="M5.428 6.792L.286 1.654a.967.967 0 010-1.372.979.979 0 011.376 0l5.825 5.822a.969.969 0 01.028 1.339l-5.85 5.861a.972.972 0 11-1.376-1.372z" fill="#19b5f1"/></symbol><symbol id="sprite-icon-down" viewBox="0 0 48 48"><title>icon-down</title><defs><style>.a{fill:#fff}</style></defs><path class="a" d="M24 0a24 24 0 1024 24A24.026 24.026 0 0024 0zm0 46a22 22 0 1122-22 22.025 22.025 0 01-22 22z" transform="rotate(-90 24 24)"/><path class="a" d="M28.707 12.293a1 1 0 00-1.414 0l-11 11a1 1 0 000 1.414l11 11a1 1 0 001.414-1.414L18.414 24l10.293-10.293a1 1 0 000-1.414z" transform="rotate(-90 24 24)"/></symbol><symbol id="sprite-icon-quotation-bottom" viewBox="0 0 26.459 21.666"><title>icon-quotation-bottom</title><path d="M11.644 0H2.959v10.022h3.436c.286 4.1-1.623 6.586-6.395 8.3l1.145 3.341c7.254-1.623 10.5-5.345 10.5-13.076zm14.815 0h-8.776v10.022h3.527c.286 4.1-1.623 6.586-6.395 8.3l1.145 3.341c7.254-1.623 10.5-5.345 10.5-13.076z" fill="#19b5f1"/></symbol><symbol id="sprite-icon-quotation-top" viewBox="0 0 26.459 21.666"><title>icon-quotation-top</title><path d="M14.815 21.666H23.5V11.644h-3.436c-.286-4.1 1.623-6.586 6.395-8.3L25.314.003c-7.254 1.623-10.5 5.345-10.5 13.076zM0 21.666h8.776V11.644H5.249c-.286-4.1 1.623-6.586 6.395-8.3L10.499.003C3.245 1.626-.001 5.348-.001 13.079z" fill="#19b5f1"/></symbol><symbol id="sprite-icon-slide-left" viewBox="0 0 11.229 20.395"><title>icon-slide-left</title><path d="M55.411 10.926l9.171 9.168a1.03 1.03 0 001.458-1.455L57.6 10.2l8.44-8.442A1.031 1.031 0 0064.582.3L55.41 9.47a1.039 1.039 0 00.001 1.456z" fill="#19b5f1" transform="translate(-55.113 -.001)"/></symbol><symbol id="sprite-icon-slide-right" viewBox="0 0 11.229 20.395"><title>icon-slide-right</title><path d="M54.411 10.926l9.171 9.168a1.03 1.03 0 001.458-1.455L56.6 10.2l8.44-8.442A1.031 1.031 0 0063.582.3L54.41 9.47a1.039 1.039 0 00.001 1.456z" fill="#19b5f1" transform="rotate(180 32.671 10.198)"/></symbol></svg>